{
	"asset":{
		"generator":"Khronos glTF Blender I/O v5.1.20",
		"version":"2.0"
	},
	"scene":0,
	"scenes":[
		{
			"name":"Scene",
			"nodes":[
				0
			]
		}
	],
	"nodes":[
		{
			"mesh":0,
			"name":"SM_Baseboard"
		}
	],
	"meshes":[
		{
			"name":"SM_Baseboard",
			"primitives":[
				{
					"attributes":{
						"POSITION":0,
						"NORMAL":1,
						"TEXCOORD_0":2,
						"TEXCOORD_1":3,
						"TANGENT":4
					},
					"indices":5
				}
			]
		}
	],
	"accessors":[
		{
			"bufferView":0,
			"componentType":5126,
			"count":800,
			"max":[
				4.481300354003906,
				0.0949999988079071,
				2.134999990463257
			],
			"min":[
				-4.481299877166748,
				0,
				-2.134999990463257
			],
			"type":"VEC3"
		},
		{
			"bufferView":1,
			"componentType":5126,
			"count":800,
			"type":"VEC3"
		},
		{
			"bufferView":2,
			"componentType":5126,
			"count":800,
			"type":"VEC2"
		},
		{
			"bufferView":3,
			"componentType":5126,
			"count":800,
			"type":"VEC2"
		},
		{
			"bufferView":4,
			"componentType":5126,
			"count":800,
			"type":"VEC4"
		},
		{
			"bufferView":5,
			"componentType":5123,
			"count":1650,
			"type":"SCALAR"
		}
	],
	"bufferViews":[
		{
			"buffer":0,
			"byteLength":9600,
			"byteOffset":0,
			"target":34962
		},
		{
			"buffer":0,
			"byteLength":9600,
			"byteOffset":9600,
			"target":34962
		},
		{
			"buffer":0,
			"byteLength":6400,
			"byteOffset":19200,
			"target":34962
		},
		{
			"buffer":0,
			"byteLength":6400,
			"byteOffset":25600,
			"target":34962
		},
		{
			"buffer":0,
			"byteLength":12800,
			"byteOffset":32000,
			"target":34962
		},
		{
			"buffer":0,
			"byteLength":3300,
			"byteOffset":44800,
			"target":34963
		}
	],
	"buffers":[
		{
			"byteLength":48100,
			"uri":"baseboard.bin"
		}
	]
}
