{
	"asset":{
		"generator":"Khronos glTF Blender I/O v5.1.20",
		"version":"2.0"
	},
	"scene":0,
	"scenes":[
		{
			"name":"Scene",
			"nodes":[
				0
			]
		}
	],
	"nodes":[
		{
			"mesh":0,
			"name":"SM_Door_Bath_Leaf"
		}
	],
	"meshes":[
		{
			"name":"SM_Door_Bath_Leaf",
			"primitives":[
				{
					"attributes":{
						"POSITION":0,
						"NORMAL":1,
						"TEXCOORD_0":2,
						"TEXCOORD_1":3,
						"TANGENT":4
					},
					"indices":5
				}
			]
		}
	],
	"accessors":[
		{
			"bufferView":0,
			"componentType":5126,
			"count":796,
			"max":[
				0.8074140548706055,
				2,
				0.10417723655700684
			],
			"min":[
				-0.00937652587890625,
				0.006749024149030447,
				-0.1641768217086792
			],
			"type":"VEC3"
		},
		{
			"bufferView":1,
			"componentType":5126,
			"count":796,
			"type":"VEC3"
		},
		{
			"bufferView":2,
			"componentType":5126,
			"count":796,
			"type":"VEC2"
		},
		{
			"bufferView":3,
			"componentType":5126,
			"count":796,
			"type":"VEC2"
		},
		{
			"bufferView":4,
			"componentType":5126,
			"count":796,
			"type":"VEC4"
		},
		{
			"bufferView":5,
			"componentType":5123,
			"count":1818,
			"type":"SCALAR"
		}
	],
	"bufferViews":[
		{
			"buffer":0,
			"byteLength":9552,
			"byteOffset":0,
			"target":34962
		},
		{
			"buffer":0,
			"byteLength":9552,
			"byteOffset":9552,
			"target":34962
		},
		{
			"buffer":0,
			"byteLength":6368,
			"byteOffset":19104,
			"target":34962
		},
		{
			"buffer":0,
			"byteLength":6368,
			"byteOffset":25472,
			"target":34962
		},
		{
			"buffer":0,
			"byteLength":12736,
			"byteOffset":31840,
			"target":34962
		},
		{
			"buffer":0,
			"byteLength":3636,
			"byteOffset":44576,
			"target":34963
		}
	],
	"buffers":[
		{
			"byteLength":48212,
			"uri":"door_bath_leaf.bin"
		}
	]
}
