{
	"asset":{
		"generator":"Khronos glTF Blender I/O v5.1.20",
		"version":"2.0"
	},
	"scene":0,
	"scenes":[
		{
			"name":"Scene",
			"nodes":[
				0
			]
		}
	],
	"nodes":[
		{
			"mesh":0,
			"name":"SM_Door_Entry_Leaf"
		}
	],
	"meshes":[
		{
			"name":"SM_Door_Entry_Leaf",
			"primitives":[
				{
					"attributes":{
						"POSITION":0,
						"NORMAL":1,
						"TEXCOORD_0":2,
						"TEXCOORD_1":3,
						"TANGENT":4
					},
					"indices":5
				}
			]
		}
	],
	"accessors":[
		{
			"bufferView":0,
			"componentType":5126,
			"count":5019,
			"max":[
				0.14288806915283203,
				2,
				0.009376049041748047
			],
			"min":[
				-0.12546634674072266,
				0.006749004125595093,
				-0.8687868118286133
			],
			"type":"VEC3"
		},
		{
			"bufferView":1,
			"componentType":5126,
			"count":5019,
			"type":"VEC3"
		},
		{
			"bufferView":2,
			"componentType":5126,
			"count":5019,
			"type":"VEC2"
		},
		{
			"bufferView":3,
			"componentType":5126,
			"count":5019,
			"type":"VEC2"
		},
		{
			"bufferView":4,
			"componentType":5126,
			"count":5019,
			"type":"VEC4"
		},
		{
			"bufferView":5,
			"componentType":5123,
			"count":10752,
			"type":"SCALAR"
		}
	],
	"bufferViews":[
		{
			"buffer":0,
			"byteLength":60228,
			"byteOffset":0,
			"target":34962
		},
		{
			"buffer":0,
			"byteLength":60228,
			"byteOffset":60228,
			"target":34962
		},
		{
			"buffer":0,
			"byteLength":40152,
			"byteOffset":120456,
			"target":34962
		},
		{
			"buffer":0,
			"byteLength":40152,
			"byteOffset":160608,
			"target":34962
		},
		{
			"buffer":0,
			"byteLength":80304,
			"byteOffset":200760,
			"target":34962
		},
		{
			"buffer":0,
			"byteLength":21504,
			"byteOffset":281064,
			"target":34963
		}
	],
	"buffers":[
		{
			"byteLength":302568,
			"uri":"door_entry_leaf.bin"
		}
	]
}
