{
	"asset":{
		"generator":"Khronos glTF Blender I/O v5.1.20",
		"version":"2.0"
	},
	"scene":0,
	"scenes":[
		{
			"name":"Scene",
			"nodes":[
				0
			]
		}
	],
	"nodes":[
		{
			"mesh":0,
			"name":"SM_Walls"
		}
	],
	"meshes":[
		{
			"name":"SM_Walls",
			"primitives":[
				{
					"attributes":{
						"POSITION":0,
						"NORMAL":1,
						"TEXCOORD_0":2,
						"TEXCOORD_1":3,
						"TANGENT":4
					},
					"indices":5
				}
			]
		}
	],
	"accessors":[
		{
			"bufferView":0,
			"componentType":5126,
			"count":480,
			"max":[
				4.481300354003906,
				2.700000047683716,
				2.246299982070923
			],
			"min":[
				-4.481299877166748,
				0,
				-2.246299982070923
			],
			"type":"VEC3"
		},
		{
			"bufferView":1,
			"componentType":5126,
			"count":480,
			"type":"VEC3"
		},
		{
			"bufferView":2,
			"componentType":5126,
			"count":480,
			"type":"VEC2"
		},
		{
			"bufferView":3,
			"componentType":5126,
			"count":480,
			"type":"VEC2"
		},
		{
			"bufferView":4,
			"componentType":5126,
			"count":480,
			"type":"VEC4"
		},
		{
			"bufferView":5,
			"componentType":5123,
			"count":720,
			"type":"SCALAR"
		}
	],
	"bufferViews":[
		{
			"buffer":0,
			"byteLength":5760,
			"byteOffset":0,
			"target":34962
		},
		{
			"buffer":0,
			"byteLength":5760,
			"byteOffset":5760,
			"target":34962
		},
		{
			"buffer":0,
			"byteLength":3840,
			"byteOffset":11520,
			"target":34962
		},
		{
			"buffer":0,
			"byteLength":3840,
			"byteOffset":15360,
			"target":34962
		},
		{
			"buffer":0,
			"byteLength":7680,
			"byteOffset":19200,
			"target":34962
		},
		{
			"buffer":0,
			"byteLength":1440,
			"byteOffset":26880,
			"target":34963
		}
	],
	"buffers":[
		{
			"byteLength":28320,
			"uri":"walls.bin"
		}
	]
}
