{
	"asset":{
		"generator":"Khronos glTF Blender I/O v5.1.20",
		"version":"2.0"
	},
	"scene":0,
	"scenes":[
		{
			"name":"Scene",
			"nodes":[
				0
			]
		}
	],
	"nodes":[
		{
			"mesh":0,
			"name":"SM_Window_Frames"
		}
	],
	"meshes":[
		{
			"name":"SM_Window_Frames",
			"primitives":[
				{
					"attributes":{
						"POSITION":0,
						"NORMAL":1,
						"TEXCOORD_0":2,
						"TEXCOORD_1":3,
						"TANGENT":4
					},
					"indices":5
				}
			]
		}
	],
	"accessors":[
		{
			"bufferView":0,
			"componentType":5126,
			"count":192,
			"max":[
				-4.369999885559082,
				2.4200000762939453,
				1.6349999904632568
			],
			"min":[
				-4.481299877166748,
				0.3499999940395355,
				-1.6649999618530273
			],
			"type":"VEC3"
		},
		{
			"bufferView":1,
			"componentType":5126,
			"count":192,
			"type":"VEC3"
		},
		{
			"bufferView":2,
			"componentType":5126,
			"count":192,
			"type":"VEC2"
		},
		{
			"bufferView":3,
			"componentType":5126,
			"count":192,
			"type":"VEC2"
		},
		{
			"bufferView":4,
			"componentType":5126,
			"count":192,
			"type":"VEC4"
		},
		{
			"bufferView":5,
			"componentType":5123,
			"count":288,
			"type":"SCALAR"
		}
	],
	"bufferViews":[
		{
			"buffer":0,
			"byteLength":2304,
			"byteOffset":0,
			"target":34962
		},
		{
			"buffer":0,
			"byteLength":2304,
			"byteOffset":2304,
			"target":34962
		},
		{
			"buffer":0,
			"byteLength":1536,
			"byteOffset":4608,
			"target":34962
		},
		{
			"buffer":0,
			"byteLength":1536,
			"byteOffset":6144,
			"target":34962
		},
		{
			"buffer":0,
			"byteLength":3072,
			"byteOffset":7680,
			"target":34962
		},
		{
			"buffer":0,
			"byteLength":576,
			"byteOffset":10752,
			"target":34963
		}
	],
	"buffers":[
		{
			"byteLength":11328,
			"uri":"window_frames.bin"
		}
	]
}
