{
	"asset":{
		"generator":"Khronos glTF Blender I/O v5.1.20",
		"version":"2.0"
	},
	"scene":0,
	"scenes":[
		{
			"name":"Scene",
			"nodes":[
				0
			]
		}
	],
	"nodes":[
		{
			"mesh":0,
			"name":"SM_Closet_Panel_L"
		}
	],
	"meshes":[
		{
			"name":"SM_Closet_Panel_L",
			"primitives":[
				{
					"attributes":{
						"POSITION":0,
						"NORMAL":1,
						"TEXCOORD_0":2,
						"TEXCOORD_1":3,
						"TANGENT":4
					},
					"indices":5
				}
			]
		}
	],
	"accessors":[
		{
			"bufferView":0,
			"componentType":5126,
			"count":100,
			"max":[
				0.6100001335144043,
				1.0189999341964722,
				0.02049994468688965
			],
			"min":[
				-0.6099996566772461,
				-1.0190000534057617,
				-0.02049994468688965
			],
			"type":"VEC3"
		},
		{
			"bufferView":1,
			"componentType":5126,
			"count":100,
			"type":"VEC3"
		},
		{
			"bufferView":2,
			"componentType":5126,
			"count":100,
			"type":"VEC2"
		},
		{
			"bufferView":3,
			"componentType":5126,
			"count":100,
			"type":"VEC2"
		},
		{
			"bufferView":4,
			"componentType":5126,
			"count":100,
			"type":"VEC4"
		},
		{
			"bufferView":5,
			"componentType":5123,
			"count":210,
			"type":"SCALAR"
		}
	],
	"bufferViews":[
		{
			"buffer":0,
			"byteLength":1200,
			"byteOffset":0,
			"target":34962
		},
		{
			"buffer":0,
			"byteLength":1200,
			"byteOffset":1200,
			"target":34962
		},
		{
			"buffer":0,
			"byteLength":800,
			"byteOffset":2400,
			"target":34962
		},
		{
			"buffer":0,
			"byteLength":800,
			"byteOffset":3200,
			"target":34962
		},
		{
			"buffer":0,
			"byteLength":1600,
			"byteOffset":4000,
			"target":34962
		},
		{
			"buffer":0,
			"byteLength":420,
			"byteOffset":5600,
			"target":34963
		}
	],
	"buffers":[
		{
			"byteLength":6020,
			"uri":"closet_panel_l.bin"
		}
	]
}
