{
	"asset":{
		"generator":"Khronos glTF Blender I/O v5.1.20",
		"version":"2.0"
	},
	"scene":0,
	"scenes":[
		{
			"name":"Scene",
			"nodes":[
				0
			]
		}
	],
	"nodes":[
		{
			"mesh":0,
			"name":"SM_Door_Bath_Frame"
		}
	],
	"meshes":[
		{
			"name":"SM_Door_Bath_Frame",
			"primitives":[
				{
					"attributes":{
						"POSITION":0,
						"NORMAL":1,
						"TEXCOORD_0":2,
						"TEXCOORD_1":3,
						"TANGENT":4
					},
					"indices":5
				}
			]
		}
	],
	"accessors":[
		{
			"bufferView":0,
			"componentType":5126,
			"count":240,
			"max":[
				2.821526527404785,
				2.0813252925872803,
				0.5568097829818726
			],
			"min":[
				1.8434381484985352,
				-1.6589183360338211e-09,
				0.40171265602111816
			],
			"type":"VEC3"
		},
		{
			"bufferView":1,
			"componentType":5126,
			"count":240,
			"type":"VEC3"
		},
		{
			"bufferView":2,
			"componentType":5126,
			"count":240,
			"type":"VEC2"
		},
		{
			"bufferView":3,
			"componentType":5126,
			"count":240,
			"type":"VEC2"
		},
		{
			"bufferView":4,
			"componentType":5126,
			"count":240,
			"type":"VEC4"
		},
		{
			"bufferView":5,
			"componentType":5123,
			"count":408,
			"type":"SCALAR"
		}
	],
	"bufferViews":[
		{
			"buffer":0,
			"byteLength":2880,
			"byteOffset":0,
			"target":34962
		},
		{
			"buffer":0,
			"byteLength":2880,
			"byteOffset":2880,
			"target":34962
		},
		{
			"buffer":0,
			"byteLength":1920,
			"byteOffset":5760,
			"target":34962
		},
		{
			"buffer":0,
			"byteLength":1920,
			"byteOffset":7680,
			"target":34962
		},
		{
			"buffer":0,
			"byteLength":3840,
			"byteOffset":9600,
			"target":34962
		},
		{
			"buffer":0,
			"byteLength":816,
			"byteOffset":13440,
			"target":34963
		}
	],
	"buffers":[
		{
			"byteLength":14256,
			"uri":"door_bath_frame.bin"
		}
	]
}
