{
	"asset":{
		"generator":"Khronos glTF Blender I/O v5.1.20",
		"version":"2.0"
	},
	"scene":0,
	"scenes":[
		{
			"name":"Scene",
			"nodes":[
				0
			]
		}
	],
	"nodes":[
		{
			"mesh":0,
			"name":"SM_Door_Entry_Frame"
		}
	],
	"meshes":[
		{
			"name":"SM_Door_Entry_Frame",
			"primitives":[
				{
					"attributes":{
						"POSITION":0,
						"NORMAL":1,
						"TEXCOORD_0":2,
						"TEXCOORD_1":3,
						"TANGENT":4
					},
					"indices":5
				}
			]
		}
	],
	"accessors":[
		{
			"bufferView":0,
			"componentType":5126,
			"count":465,
			"max":[
				4.503079414367676,
				2.0813252925872803,
				0.12156152725219727
			],
			"min":[
				4.329704284667969,
				-2.8812792152166367e-08,
				-0.8565266132354736
			],
			"type":"VEC3"
		},
		{
			"bufferView":1,
			"componentType":5126,
			"count":465,
			"type":"VEC3"
		},
		{
			"bufferView":2,
			"componentType":5126,
			"count":465,
			"type":"VEC2"
		},
		{
			"bufferView":3,
			"componentType":5126,
			"count":465,
			"type":"VEC2"
		},
		{
			"bufferView":4,
			"componentType":5126,
			"count":465,
			"type":"VEC4"
		},
		{
			"bufferView":5,
			"componentType":5123,
			"count":864,
			"type":"SCALAR"
		}
	],
	"bufferViews":[
		{
			"buffer":0,
			"byteLength":5580,
			"byteOffset":0,
			"target":34962
		},
		{
			"buffer":0,
			"byteLength":5580,
			"byteOffset":5580,
			"target":34962
		},
		{
			"buffer":0,
			"byteLength":3720,
			"byteOffset":11160,
			"target":34962
		},
		{
			"buffer":0,
			"byteLength":3720,
			"byteOffset":14880,
			"target":34962
		},
		{
			"buffer":0,
			"byteLength":7440,
			"byteOffset":18600,
			"target":34962
		},
		{
			"buffer":0,
			"byteLength":1728,
			"byteOffset":26040,
			"target":34963
		}
	],
	"buffers":[
		{
			"byteLength":27768,
			"uri":"door_entry_frame.bin"
		}
	]
}
